<svg version="1.1" id="Layer_1" xmlns="http://www.w3.org/2000/svg" xmlns:xlink="http://www.w3.org/1999/xlink" x="0px" y="0px"
	 width="100%" viewBox="0 0 735 737" enable-background="new 0 0 735 737" xml:space="preserve">
<path fill="#010101" opacity="1.000000" stroke="none" 
	d="
M736.000000,327.000000 
	C736.000000,356.020905 736.000000,385.041779 735.608765,414.670837 
	C732.924927,436.189453 728.025818,456.540283 721.851135,476.596375 
	C707.840759,522.104065 686.194946,563.657166 656.422424,600.824890 
	C615.469788,651.949768 564.520813,689.776550 503.382965,713.378235 
	C471.661163,725.624084 439.294830,735.880493 404.798523,736.842407 
	C403.855652,736.868652 402.932404,737.598328 402.000000,738.000000 
	C399.299988,738.000000 396.599976,738.000000 393.296997,737.583862 
	C377.074890,737.081360 361.455780,736.982544 345.836548,736.955078 
	C345.224976,736.954041 344.612213,737.636169 344.000000,738.000000 
	C341.958344,738.000000 339.916656,738.000000 337.345093,737.574097 
	C324.761169,735.917297 312.542145,735.553772 300.683228,733.297546 
	C260.562958,725.664368 222.673584,711.600342 187.077728,691.559998 
	C159.141098,675.831787 133.569275,656.900818 111.093216,633.799561 
	C111.381676,632.421021 112.025101,630.626099 111.615135,630.339783 
	C107.879295,627.731262 103.959976,625.385620 99.795944,622.807739 
	C48.945789,567.937012 17.217968,503.846191 3.817743,430.617096 
	C2.983625,426.058838 1.944011,421.538147 1.000000,417.000000 
	C1.000000,385.979095 1.000000,354.958221 1.406923,323.377258 
	C3.389122,313.314667 4.499637,303.707428 6.611884,294.325775 
	C26.759434,204.839111 73.017303,131.634766 145.413391,75.474396 
	C198.861526,34.012665 260.416077,11.536714 327.443909,2.073092 
	C348.607452,2.105527 369.313385,2.024027 390.477295,2.011077 
	C402.733826,2.837731 414.691589,2.620507 426.304565,4.515737 
	C490.920776,15.061075 548.837402,41.105499 599.830444,82.064713 
	C654.392090,125.890373 693.272583,181.086563 716.485779,247.113281 
	C724.652161,270.341309 731.985046,293.874023 734.412537,318.595093 
	C734.690125,321.421448 735.458923,324.199524 736.000000,327.000000 
M184.017532,102.500473 
	C36.661709,207.192978 5.776122,393.305084 89.774765,536.802856 
	C100.272072,528.538452 110.348633,519.507446 121.476990,512.044861 
	C158.642410,487.121826 199.993988,470.857178 241.361053,454.494629 
	C251.845535,450.347565 258.105347,451.999329 265.937592,459.251587 
	C284.156403,476.121307 304.922424,489.157623 328.727448,497.154755 
	C344.307434,502.388733 360.280853,501.193756 376.215088,501.689178 
	C397.232605,502.342651 416.135284,495.570038 434.269165,485.853180 
	C450.841187,476.973236 465.025391,464.840973 479.205353,452.712097 
	C481.111481,451.081665 482.631989,449.661194 485.700653,450.964172 
	C515.235413,463.505188 545.187195,475.121124 574.344055,488.476715 
	C596.887024,498.802734 618.338623,511.434448 636.867920,528.341187 
	C640.149170,531.335205 643.376709,534.388123 647.020020,537.777466 
	C649.193909,533.449158 651.041870,529.598267 653.036499,525.824890 
	C674.586853,485.056030 689.346985,442.349182 691.557678,395.781952 
	C694.090515,342.429169 689.143677,290.644257 666.610107,241.119019 
	C628.506714,157.373672 566.953125,98.905609 481.631897,65.171074 
	C450.336639,52.797493 417.680511,46.835537 384.117737,46.100876 
	C366.979156,45.725723 349.637543,44.689831 332.705170,46.668800 
	C278.931427,52.953594 229.429596,71.477570 184.017532,102.500473 
z"/>
<path fill="#FEFEFE" opacity="1.000000" stroke="none" 
	d="
M326.986267,1.959159 
	C260.416077,11.536714 198.861526,34.012665 145.413391,75.474396 
	C73.017303,131.634766 26.759434,204.839111 6.611884,294.325775 
	C4.499637,303.707428 3.389122,313.314667 1.406923,322.908630 
	C1.000000,215.739151 1.000000,108.478302 1.000000,1.000000 
	C109.354134,1.000000 217.708405,1.000000 326.540222,1.239966 
	C327.017792,1.479932 326.986267,1.959159 326.986267,1.959159 
z"/>
<path fill="#FEFEFE" opacity="1.000000" stroke="none" 
	d="
M736.000000,326.531342 
	C735.458923,324.199524 734.690125,321.421448 734.412537,318.595093 
	C731.985046,293.874023 724.652161,270.341309 716.485779,247.113281 
	C693.272583,181.086563 654.392090,125.890373 599.830444,82.064713 
	C548.837402,41.105499 490.920776,15.061075 426.304565,4.515737 
	C414.691589,2.620507 402.733826,2.837731 390.465637,1.775584 
	C389.996002,1.471543 390.000000,1.000000 390.000000,1.000000 
	C505.258209,1.000000 620.516418,1.000000 736.000000,1.000000 
	C736.000000,109.354126 736.000000,217.708405 736.000000,326.531342 
z"/>
<path fill="#FEFEFE" opacity="1.000000" stroke="none" 
	d="
M402.468658,738.000000 
	C402.932404,737.598328 403.855652,736.868652 404.798523,736.842407 
	C439.294830,735.880493 471.661163,725.624084 503.382965,713.378235 
	C564.520813,689.776550 615.469788,651.949768 656.422424,600.824890 
	C686.194946,563.657166 707.840759,522.104065 721.851135,476.596375 
	C728.025818,456.540283 732.924927,436.189453 735.608765,415.139465 
	C736.000000,522.594971 736.000000,630.189880 736.000000,738.000000 
	C624.979187,738.000000 513.958252,738.000000 402.468658,738.000000 
z"/>
<path fill="#FEFEFE" opacity="1.000000" stroke="none" 
	d="
M1.000000,417.468658 
	C1.944011,421.538147 2.983625,426.058838 3.817743,430.617096 
	C17.217968,503.846191 48.945789,567.937012 99.877853,623.131897 
	C103.825249,627.101929 107.392433,630.592346 110.959610,634.082764 
	C133.569275,656.900818 159.141098,675.831787 187.077728,691.559998 
	C222.673584,711.600342 260.562958,725.664368 300.683228,733.297546 
	C312.542145,735.553772 324.761169,735.917297 336.907593,737.574097 
	C225.074600,738.000000 113.149185,738.000000 1.000000,738.000000 
	C1.000000,631.312561 1.000000,524.624939 1.000000,417.468658 
z"/>
<path fill="#C4C4C4" opacity="1.000000" stroke="none" 
	d="
M389.531342,1.000000 
	C390.000000,1.000000 389.996002,1.471543 390.007660,1.707036 
	C369.313385,2.024027 348.607452,2.105527 327.443909,2.073092 
	C326.986267,1.959159 327.017792,1.479932 327.008911,1.239966 
	C347.687561,1.000000 368.375122,1.000000 389.531342,1.000000 
z"/>
<path fill="#C5C5C5" opacity="1.000000" stroke="none" 
	d="
M344.468658,738.000000 
	C344.612213,737.636169 345.224976,736.954041 345.836548,736.955078 
	C361.455780,736.982544 377.074890,737.081360 392.846985,737.583862 
	C376.979095,738.000000 360.958221,738.000000 344.468658,738.000000 
z"/>
<path fill="#FEFEFE" opacity="1.000000" stroke="none" 
	d="
M184.305603,102.284264 
	C229.429596,71.477570 278.931427,52.953594 332.705170,46.668800 
	C349.637543,44.689831 366.979156,45.725723 384.117737,46.100876 
	C417.680511,46.835537 450.336639,52.797493 481.631897,65.171074 
	C566.953125,98.905609 628.506714,157.373672 666.610107,241.119019 
	C689.143677,290.644257 694.090515,342.429169 691.557678,395.781952 
	C689.346985,442.349182 674.586853,485.056030 653.036499,525.824890 
	C651.041870,529.598267 649.193909,533.449158 647.020020,537.777466 
	C643.376709,534.388123 640.149170,531.335205 636.867920,528.341187 
	C618.338623,511.434448 596.887024,498.802734 574.344055,488.476715 
	C545.187195,475.121124 515.235413,463.505188 485.700653,450.964172 
	C482.631989,449.661194 481.111481,451.081665 479.205353,452.712097 
	C465.025391,464.840973 450.841187,476.973236 434.269165,485.853180 
	C416.135284,495.570038 397.232605,502.342651 376.215088,501.689178 
	C360.280853,501.193756 344.307434,502.388733 328.727448,497.154755 
	C304.922424,489.157623 284.156403,476.121307 265.937592,459.251587 
	C258.105347,451.999329 251.845535,450.347565 241.361053,454.494629 
	C199.993988,470.857178 158.642410,487.121826 121.476990,512.044861 
	C110.348633,519.507446 100.272072,528.538452 89.774765,536.802856 
	C5.776122,393.305084 36.661709,207.192978 184.305603,102.284264 
M461.281342,419.773438 
	C479.100616,398.901642 492.113403,375.302155 501.549072,349.590851 
	C512.805115,318.919312 516.332581,287.273132 511.259491,255.199951 
	C505.488831,218.716476 487.873077,187.973312 459.600616,164.237534 
	C420.397949,131.325439 375.253204,120.827843 326.443420,136.681747 
	C263.772644,157.037796 223.197128,215.636734 223.271606,281.677155 
	C223.312912,318.312225 233.699951,352.224335 251.113815,384.146912 
	C266.345123,412.068512 285.966705,436.184235 313.631012,452.666840 
	C345.674377,471.758575 378.945892,475.223480 413.135345,458.414490 
	C431.791901,449.242157 447.217499,435.885010 461.281342,419.773438 
z"/>
<path fill="#191919" opacity="1.000000" stroke="none" 
	d="
M111.093216,633.799561 
	C107.392433,630.592346 103.825249,627.101929 100.176163,623.287354 
	C103.959976,625.385620 107.879295,627.731262 111.615135,630.339783 
	C112.025101,630.626099 111.381676,632.421021 111.093216,633.799561 
z"/>
<path fill="#010101" opacity="1.000000" stroke="none" 
	d="
M461.043945,420.037323 
	C447.217499,435.885010 431.791901,449.242157 413.135345,458.414490 
	C378.945892,475.223480 345.674377,471.758575 313.631012,452.666840 
	C285.966705,436.184235 266.345123,412.068512 251.113815,384.146912 
	C233.699951,352.224335 223.312912,318.312225 223.271606,281.677155 
	C223.197128,215.636734 263.772644,157.037796 326.443420,136.681747 
	C375.253204,120.827843 420.397949,131.325439 459.600616,164.237534 
	C487.873077,187.973312 505.488831,218.716476 511.259491,255.199951 
	C516.332581,287.273132 512.805115,318.919312 501.549072,349.590851 
	C492.113403,375.302155 479.100616,398.901642 461.043945,420.037323 
z"/>
</svg>